<?xml version="1.0" standalone="no"?>
<!DOCTYPE svg PUBLIC "-//W3C//DTD SVG 20010904//EN"
 "http://www.w3.org/TR/2001/REC-SVG-20010904/DTD/svg10.dtd">
<svg version="1.0" xmlns="http://www.w3.org/2000/svg"
 width="1024.000000pt" height="1024.000000pt" viewBox="0 0 1024.000000 1024.000000"
 preserveAspectRatio="xMidYMid meet">
<metadata>
Created by potrace 1.14, written by Peter Selinger 2001-2017
</metadata>
<g transform="translate(0.000000,1024.000000) scale(0.100000,-0.100000)"
fill="#000000" stroke="none">
<path d="M3270 8555 c-514 -52 -986 -233 -1387 -532 -598 -446 -945 -1051
-1088 -1898 -37 -223 -53 -397 -67 -727 -30 -735 52 -1357 239 -1828 275 -691
795 -1197 1532 -1490 766 -303 2135 -475 2901 -364 676 98 1307 401 1935 928
673 565 1298 1469 1685 2437 253 632 397 1245 482 2049 15 142 14 470 -1 610
-51 459 -197 709 -429 737 -97 11 -223 -47 -312 -143 -107 -116 -183 -273
-220 -455 -20 -93 -21 -124 -16 -294 3 -104 9 -209 12 -233 l6 -43 -94 93
c-267 265 -520 388 -773 375 -256 -13 -405 -153 -422 -398 -19 -272 180 -612
467 -798 104 -67 204 -110 338 -143 115 -29 376 -32 461 -5 66 21 81 33 81 63
0 28 0 28 -157 43 -176 18 -435 102 -583 191 -220 131 -377 356 -396 571 -10
101 1 154 42 199 45 49 105 70 204 70 93 0 159 -18 270 -76 124 -63 229 -153
412 -350 179 -191 218 -220 285 -208 47 9 89 50 98 95 4 21 -6 110 -26 229
-28 166 -33 220 -34 365 0 195 12 259 75 390 71 147 180 255 256 255 153 0
263 -429 233 -914 -13 -210 -73 -624 -139 -956 -217 -1090 -686 -2115 -1336
-2917 -171 -211 -502 -541 -709 -707 -166 -133 -432 -315 -592 -405 -381 -215
-771 -350 -1172 -405 -516 -72 -1363 -9 -2086 154 -729 165 -1282 462 -1645
886 -469 546 -680 1301 -657 2354 16 727 110 1190 332 1645 316 648 894 1108
1623 1295 242 62 364 75 712 74 334 0 410 -7 700 -60 546 -100 967 -284 1369
-598 152 -119 278 -242 521 -511 424 -469 687 -712 990 -915 282 -188 531
-300 816 -366 105 -24 140 -28 301 -28 169 -1 183 0 210 20 15 11 34 34 42 49
20 41 -2 101 -48 132 -31 21 -45 23 -172 23 -155 0 -292 22 -447 71 -140 45
-298 118 -437 202 -363 219 -620 447 -1102 977 -285 314 -433 452 -648 606
-529 379 -1309 598 -2114 593 -108 -1 -252 -7 -321 -14z"/>
<path d="M4190 7918 c-203 -31 -385 -228 -513 -553 -91 -229 -239 -845 -282
-1170 -22 -162 -14 -248 26 -288 24 -23 35 -28 57 -22 15 4 32 11 38 16 14 12
48 130 69 239 22 117 18 110 60 99 28 -8 56 -6 113 5 143 29 625 191 825 276
l87 38 0 -99 c0 -163 -41 -430 -115 -749 -44 -189 -49 -228 -36 -276 21 -77
94 -111 154 -71 62 40 128 261 196 657 44 257 53 357 54 640 1 261 -7 369 -43
545 -100 488 -367 763 -690 713z m187 -280 c150 -108 283 -451 287 -742 l1
-100 -40 -14 c-185 -68 -769 -303 -922 -373 -35 -15 -63 -23 -63 -18 0 41 149
635 194 773 139 422 353 610 543 474z"/>
<path d="M2250 7350 c-183 -34 -326 -84 -473 -164 -179 -97 -345 -246 -396
-355 -24 -51 -26 -66 -24 -171 1 -83 8 -148 28 -235 39 -178 61 -327 95 -655
17 -162 50 -437 75 -610 24 -173 56 -412 70 -530 67 -554 120 -878 219 -1335
32 -145 56 -230 77 -273 58 -119 171 -204 329 -249 99 -27 420 -25 588 5 646
117 1118 442 1256 865 65 199 74 473 21 672 -92 349 -330 608 -682 740 -96 37
-279 82 -403 100 -94 13 -369 34 -475 36 l-40 0 29 22 c249 188 406 352 551
576 220 340 272 764 134 1113 -31 79 -121 208 -187 269 -101 93 -223 155 -361
184 -98 20 -309 18 -431 -5z m345 -240 c274 -44 455 -276 472 -605 7 -127 -4
-205 -47 -340 -69 -213 -186 -392 -389 -595 -197 -196 -406 -330 -626 -401
-105 -34 -141 -57 -161 -105 -28 -67 17 -141 92 -151 22 -3 98 2 169 11 192
22 456 30 642 17 457 -31 752 -138 945 -339 109 -114 174 -234 215 -398 26
-103 23 -332 -6 -439 -41 -153 -124 -291 -234 -391 -253 -230 -776 -406 -1207
-407 -224 -1 -353 66 -394 205 -81 272 -207 987 -251 1418 -28 278 -76 661
-106 855 -55 354 -68 450 -83 635 -28 330 -37 503 -30 583 l7 78 50 45 c27 24
86 69 131 98 265 176 581 264 811 226z"/>
<path d="M5672 7354 c-25 -17 -62 -86 -99 -184 -69 -181 -325 -932 -389 -1140
-19 -63 -86 -268 -149 -455 -122 -364 -145 -455 -145 -564 0 -135 30 -171 293
-345 232 -154 408 -254 460 -263 76 -12 127 24 127 88 0 55 -34 88 -163 160
-258 144 -480 281 -507 314 -42 51 -17 135 239 819 87 232 173 464 191 516 28
83 121 353 266 772 56 161 59 224 15 269 -24 23 -38 29 -73 29 -24 0 -54 -7
-66 -16z"/>
<path d="M6567 6429 c-211 -43 -433 -257 -572 -552 -209 -445 -241 -966 -74
-1216 108 -162 294 -215 462 -133 184 91 332 311 460 687 194 571 205 953 30
1129 -72 74 -195 108 -306 85z m151 -235 c78 -54 100 -256 56 -503 -23 -125
-98 -380 -153 -516 -128 -316 -286 -480 -428 -443 -80 21 -133 169 -133 375 0
411 253 943 510 1071 70 35 114 40 148 16z"/>
<path d="M7373 5485 c-84 -36 -231 -495 -288 -900 -20 -142 -20 -383 -1 -468
33 -140 99 -238 197 -292 69 -37 198 -47 277 -21 68 23 177 101 246 178 186
204 401 640 506 1023 29 107 70 309 70 344 0 52 -32 90 -82 98 -33 5 -41 2
-71 -28 -28 -28 -39 -54 -66 -154 -87 -321 -117 -406 -215 -610 -248 -517
-499 -754 -597 -564 -68 134 -63 301 21 735 63 324 100 533 102 580 2 70 -40
104 -99 79z"/>
<path d="M4375 5144 c-14 -15 -26 -45 -32 -77 -23 -150 19 -1512 67 -2147 5
-69 14 -215 20 -325 13 -237 25 -290 80 -345 64 -64 130 -79 415 -91 337 -14
416 0 439 79 6 22 5 41 -4 63 -22 51 -70 65 -260 78 -320 21 -389 31 -409 55
-19 22 -58 742 -71 1301 -22 944 -41 1242 -86 1355 -32 79 -111 106 -159 54z"/>
<path d="M6415 4198 c-42 -33 -54 -75 -65 -230 -17 -249 -47 -432 -104 -639
-136 -496 -336 -747 -512 -644 -89 52 -154 202 -189 435 -20 136 -25 234 -34
595 -8 347 -12 371 -66 413 -33 26 -91 29 -123 6 -12 -8 -30 -30 -40 -47 -15
-29 -17 -66 -16 -367 1 -665 63 -971 233 -1161 149 -165 374 -193 557 -69 163
112 295 338 390 667 74 259 125 592 127 833 1 101 -1 120 -21 157 -38 73 -86
91 -137 51z"/>
</g>
</svg>
